PathFileType	4	(X/Y/Z)	C:/Users/opensim2020/Desktop/walking_exp_matlab/subject02_walking13_straight_03.trc																																																																																																																									
DataRate	CameraRate	NumFrames	NumMarkers	Units	OrigDataRate	OrigDataStartFrame	OrigNumFrames																																																																																																																					
100	100	6	41	mm	100	1408	129																																																																																																																					
Frame#	Time	LFHD			RFHD			LBHD			RBHD			C7			T10			CLAV			STRN			RBAK			LSHO			LUPA			LELB			LFRM			LWRA			LWRB			LFIN			RSHO			RUPA			RELB			RFRM			RWRA			RWRB			RFIN			LASI			RASI			LPSI			RPSI			LTHI			LKNE			LTIB			LANK			LHEE			LTOE			RTHI			RKNE			RTIB			RANK			RHEE			RTOE			*39			*40		
		X1	Y1	Z1	X2	Y2	Z2	X3	Y3	Z3	X4	Y4	Z4	X5	Y5	Z5	X6	Y6	Z6	X7	Y7	Z7	X8	Y8	Z8	X9	Y9	Z9	X10	Y10	Z10	X11	Y11	Z11	X12	Y12	Z12	X13	Y13	Z13	X14	Y14	Z14	X15	Y15	Z15	X16	Y16	Z16	X17	Y17	Z17	X18	Y18	Z18	X19	Y19	Z19	X20	Y20	Z20	X21	Y21	Z21	X22	Y22	Z22	X23	Y23	Z23	X24	Y24	Z24	X25	Y25	Z25	X26	Y26	Z26	X27	Y27	Z27	X28	Y28	Z28	X29	Y29	Z29	X30	Y30	Z30	X31	Y31	Z31	X32	Y32	Z32	X33	Y33	Z33	X34	Y34	Z34	X35	Y35	Z35	X36	Y36	Z36	X37	Y37	Z37	X38	Y38	Z38	X39	Y39	Z39	X40	Y40	Z40	X41	Y41	Z41
																																																																																																																												
97	0.96	586.43628	1755.36768	-1016.70972	545.2099	1722.26843	-881.32495	472.86523	1670.91333	-1070.18738	421.81412	1635.18494	-940.33655	408.48941	1521.17249	-1012.36414	374.47626	1243.42236	-1014.74072	553.16058	1464.94958	-1010.70557	618.09296	1297.07813	-1006.30017	358.01556	1339.89868	-961.07312	493.97424	1511.02917	-1183.24304	514.72174	1323.38525	-1285.58118	550.37573	1189.58594	-1321.12964	634.92291	1083.74255	-1336.28931	750.70258	1014.75928	-1299.41333	715.27295	989.63013	-1335.59119	769.38965	949.88422	-1334.82886	465.50156	1482.7937	-821.08643	418.89987	1291.80737	-751.50378	418.97873	1145.02661	-742.12128	432.16165	1026.96082	-720.97247	471.24457	896.17096	-733.45428	418.52634	897.39276	-711.34631	446.1965	830.12622	-704.3313	607.90216	987.59454	-1148.96301	617.59143	981.33832	-892.67023	402.53403	1031.45435	-1056.57703	400.99875	1033.47913	-941.25348	566.51617	677.25793	-1217.99316	558.12134	493.60309	-1211.79431	408.73596	386.81891	-1203.07104	272.80295	210.93657	-1181.54382	241.74812	203.44458	-1121.94287	347.68488	81.04025	-1227.98328	583.4303	670.59247	-839.06488	604.86902	465.92831	-898.25171	565.18842	280.22891	-905.47504	542.43658	93.08625	-959.953	507.00455	42.26863	-1019.38348	692.97711	41.65651	-944.63715	455.7785	1802.45703	-957.21051	2845.87793	1034.35449	-3357.31836
98	0.97	598.82294	1757.95325	-1015.02197	557.73291	1724.72839	-879.49146	485.64435	1673.22791	-1068.78113	434.45474	1637.31384	-938.9198	421.61343	1523.49951	-1010.85669	387.27698	1245.93323	-1012.56158	566.38965	1467.21729	-1009.47931	630.93292	1299.21497	-1004.9071	370.94498	1342.8175	-959.263	506.47122	1513.21301	-1181.88843	524.56354	1324.46338	-1283.15112	557.53271	1189.71362	-1317.50891	638.31293	1081.03638	-1332.42651	751.48694	1007.46564	-1295.00134	715.55383	984.13428	-1331.85559	767.96149	941.99506	-1330.4574	478.95911	1485.91357	-819.69208	434.18954	1294.54175	-749.02972	436.04977	1148.03943	-738.54382	452.16464	1029.88525	-718.091	494.63522	900.01819	-730.6897	441.61371	899.95978	-708.49475	471.46762	833.89862	-701.4079	619.93506	991.33234	-1147.70508	629.01874	982.88995	-890.47992	414.9527	1034.49719	-1054.29932	413.19086	1035.80554	-938.85223	584.97137	681.01599	-1216.05432	580.96881	497.36658	-1208.5033	434.92874	386.59085	-1200.01111	304.19415	206.18268	-1179.85034	272.32007	197.67421	-1120.87695	385.02136	79.83615	-1225.25037	589.40851	670.88062	-838.29706	607.10712	465.94757	-897.65582	565.67908	280.47067	-905.26147	542.47278	93.23006	-960.02509	507.02783	42.25481	-1019.39423	693.00305	41.78648	-944.49957	468.00174	1804.62549	-955.65637	2845.29395	1034.24963	-3360.46802
99	0.98	611.36115	1760.32324	-1013.51563	570.1701	1726.91821	-878.24036	498.46454	1675.25439	-1067.2832	447.06686	1638.98279	-937.79767	434.77081	1525.7782	-1009.45123	400.06033	1248.255	-1010.21832	579.41577	1469.25183	-1008.07104	643.61267	1301.08276	-1003.31738	383.78082	1345.29834	-956.82904	519.33502	1515.05273	-1180.45117	534.6806	1325.53406	-1281.26086	564.64722	1189.76892	-1314.02563	641.35797	1078.2124	-1328.81909	751.63141	1000.12927	-1290.76672	714.93262	978.42334	-1328.09241	765.68011	934.07404	-1326.25061	492.06607	1488.93274	-818.40271	449.99994	1297.48364	-746.29199	453.20111	1150.65723	-735.37067	472.19073	1032.7832	-715.2536	517.83417	904.26971	-728.08313	465.00076	902.58557	-705.62457	496.93802	837.55774	-698.42346	632.35486	994.90662	-1145.76086	640.24371	984.29041	-888.11328	427.43918	1037.26172	-1052.36035	425.25211	1037.96069	-936.74554	603.01672	684.74121	-1214.32776	603.48328	501.01108	-1205.25793	461.17453	385.3609	-1197.4668	336.28189	200.49136	-1178.12634	304.00952	190.53026	-1119.29639	423.12067	77.67999	-1222.07947	595.03442	670.69208	-837.74628	609.61194	465.79181	-897.12109	566.284	280.74475	-904.91022	542.53058	93.42207	-960.11334	507.02792	42.45317	-1019.53625	692.95844	41.74787	-944.37665	480.19659	1806.51355	-954.32556	2845.80225	1034.42603	-3357.69067
100	0.99	623.89642	1762.4408	-1012.00659	582.88654	1729.1217	-876.5755	511.23373	1677.0802	-1066.08362	460.12393	1640.87842	-936.19244	448.08759	1527.84717	-1007.81152	412.71786	1250.40833	-1007.87378	592.60907	1471.09607	-1006.75995	656.41248	1302.75549	-1001.68091	396.51663	1347.6842	-954.8053	532.17383	1516.60632	-1178.96484	544.84045	1326.18103	-1278.43042	571.74139	1189.73926	-1310.60547	644.19757	1075.31287	-1325.1261	751.20276	992.80121	-1286.7373	713.88867	972.80688	-1324.38684	762.69507	926.35693	-1322.40381	505.40222	1491.36121	-816.81952	465.24466	1300.10449	-743.7287	470.14355	1153.01062	-732.27838	492.48389	1035.57629	-712.23669	541.04974	908.40375	-725.93036	488.74567	905.22705	-702.71564	523.05151	841.33398	-695.383	644.86121	998.13586	-1142.89087	651.36047	985.51031	-885.57263	439.81931	1039.67114	-1050.71375	437.19965	1039.90271	-934.97394	620.68213	688.33496	-1212.6095	625.63721	504.3302	-1202.24048	487.46277	383.21198	-1195.5188	369.37732	193.67641	-1176.37744	336.99811	182.23114	-1117.94604	462.17728	74.98302	-1218.92615	600.84381	670.79846	-837.05011	611.62207	465.62222	-896.5329	567.01813	280.98868	-904.66986	542.64966	93.61075	-960.172	507.04996	42.64611	-1019.68036	692.91858	41.71984	-944.28339	492.70386	1808.31897	-952.87604	2845.81519	1034.33105	-3357.31714
101	1	636.41193	1764.27991	-1010.67145	595.52087	1730.86792	-875.09509	524.08862	1678.4375	-1064.45325	472.70486	1642.34717	-934.94238	461.2309	1529.42004	-1006.42529	425.37595	1252.25183	-1005.61414	605.72363	1472.68591	-1005.2807	669.01465	1304.07971	-999.78131	409.30884	1349.88379	-952.77509	545.10187	1517.83948	-1177.50781	555.13098	1326.7428	-1276.12915	578.82422	1189.54541	-1307.32434	646.75806	1072.39685	-1321.66211	750.31097	985.47449	-1282.88794	712.43774	967.22046	-1320.54968	759.021	918.78516	-1318.9657	518.83405	1494.05688	-815.64917	480.48251	1302.57532	-741.09302	487.47958	1155.4408	-728.83142	512.82379	1038.32104	-709.30164	564.69983	912.55884	-723.1759	512.57458	907.87195	-699.79071	549.05981	845.2605	-692.36505	658.44507	1001.27173	-1139.84741	662.17706	986.29401	-882.8017	452.21985	1041.77148	-1049.49792	449.06409	1041.51135	-933.52698	638.07727	691.72656	-1211.03101	647.50348	507.08765	-1199.55688	513.92041	380.3139	-1193.81665	403.48495	186.02176	-1174.69482	370.68033	173.2117	-1116.37305	502.31815	71.81816	-1215.70081	606.29279	670.56287	-836.49054	613.60938	465.08032	-896.3302	567.92596	281.12543	-904.45593	542.78302	93.79509	-960.32416	506.68707	42.85036	-1019.79871	692.84906	41.68589	-944.13702	505.08664	1809.81677	-951.63696	2845.32544	1034.08179	-3360.26172
102	1.01	649.04553	1765.8728	-1009.44977	608.09009	1732.46289	-873.88739	536.94287	1679.69751	-1063.38953	485.91299	1643.48413	-933.40302	474.47742	1531.01172	-1004.90906	437.97617	1253.85852	-1003.2395	618.81769	1474.01221	-1003.76001	681.6507	1305.21216	-997.78113	421.94888	1351.75964	-950.55194	558.2522	1518.75208	-1176.03333	565.51312	1327.07495	-1273.99194	585.96735	1189.2821	-1304.47766	649.10016	1069.53577	-1318.31421	748.88226	978.25049	-1279.17041	710.43451	961.69696	-1316.99548	754.68793	911.12903	-1315.05713	531.71722	1496.21045	-814.20197	495.50351	1304.6521	-738.67523	504.38361	1157.4054	-725.59204	533.18073	1040.99402	-706.26367	588.2356	916.55304	-720.79993	536.74237	910.729	-696.67334	575.22711	849.25177	-689.51965	672.28442	1004.0484	-1136.1167	672.77789	986.74091	-879.99054	464.51678	1043.51648	-1048.55811	460.83069	1042.83997	-932.50714	655.30859	694.93768	-1209.56262	669.07153	509.44034	-1197.07471	540.49664	376.60364	-1192.31799	438.4494	177.57953	-1172.93018	405.72653	163.39644	-1115.15747	543.32794	68.71765	-1212.69592	611.49323	670.26544	-835.85413	616.25507	465.16257	-895.67902	569.03033	281.26758	-904.35236	542.87042	93.98773	-960.40918	506.86047	42.90766	-1020.66852	692.76306	41.66748	-943.99377	517.45673	1811.01282	-950.69238	2845.84058	1034.29431	-3357.43042
